<svg width="18" height="17" viewBox="0 0 18 17" fill="none" xmlns="http://www.w3.org/2000/svg">
<path d="M15.9773 0.461426H1.04219C0.466585 0.461426 0 0.790389 0 1.19621C0 1.60204 0.466668 1.931 1.04219 1.931H15.9773C16.5529 1.931 17.0195 1.60204 17.0195 1.19621C17.0195 0.79033 16.5529 0.461426 15.9773 0.461426Z" fill="black"/>
<path d="M15.9773 7.68823H1.04219C0.466585 7.68823 0 8.0172 0 8.42302C0 8.82885 0.466668 9.15781 1.04219 9.15781H15.9773C16.5529 9.15781 17.0195 8.82885 17.0195 8.42302C17.0195 8.01714 16.5529 7.68823 15.9773 7.68823Z" fill="black"/>
<path d="M15.9773 14.9148H1.04219C0.466585 14.9148 0 15.2438 0 15.6496C0 16.0554 0.466668 16.3844 1.04219 16.3844H15.9773C16.5529 16.3844 17.0195 16.0554 17.0195 15.6496C17.0195 15.2437 16.5529 14.9148 15.9773 14.9148Z" fill="black"/>
</svg>
