<svg width="162" height="35" viewBox="0 0 162 35" fill="none" xmlns="http://www.w3.org/2000/svg">
<circle cx="77" cy="18" r="17" fill="#F2BD79"/>
<path d="M8.316 27.308C7.308 27.308 6.40267 27.224 5.6 27.056C4.79733 26.888 3.90133 26.664 2.912 26.384C2.25867 26.1973 1.82 26.0947 1.596 26.076L1.848 20.896H4.116L4.732 24.508C4.97467 24.7693 5.404 25.0027 6.02 25.208C6.65467 25.4133 7.37333 25.516 8.176 25.516C9.42667 25.516 10.36 25.2453 10.976 24.704C11.6107 24.144 11.928 23.3693 11.928 22.38C11.928 21.7267 11.7413 21.1667 11.368 20.7C10.9947 20.2147 10.4813 19.7853 9.828 19.412C9.17467 19.02 8.27867 18.572 7.14 18.068C5.59067 17.3587 4.30267 16.5187 3.276 15.548C2.268 14.5587 1.764 13.224 1.764 11.544C1.764 10.4987 2.03467 9.556 2.576 8.716C3.11733 7.85733 3.92 7.18533 4.984 6.7C6.06667 6.196 7.38267 5.944 8.932 5.944C9.84667 5.944 10.6493 6.00933 11.34 6.14C12.0493 6.27067 12.8147 6.448 13.636 6.672C14.1213 6.80267 14.4853 6.88667 14.728 6.924L14.56 11.824H12.32L11.732 8.38C11.564 8.212 11.228 8.05333 10.724 7.904C10.22 7.736 9.66 7.652 9.044 7.652C7.924 7.652 7.07467 7.91333 6.496 8.436C5.936 8.94 5.656 9.62133 5.656 10.48C5.656 11.1707 5.86133 11.768 6.272 12.272C6.70133 12.776 7.21467 13.2053 7.812 13.56C8.40933 13.896 9.352 14.3813 10.64 15.016C11.6853 15.52 12.5813 16.0147 13.328 16.5C14.0747 16.9853 14.7187 17.62 15.26 18.404C15.8013 19.1693 16.072 20.0747 16.072 21.12C16.072 22.1467 15.8107 23.1267 15.288 24.06C14.784 24.9933 13.944 25.768 12.768 26.384C11.6107 27 10.1267 27.308 8.316 27.308ZM19.4471 6.532L17.3191 6.168V4.656L22.5271 4.04H22.6111L23.3391 4.572L23.3671 10.816L23.1711 13.252C23.7498 12.7293 24.5338 12.244 25.5231 11.796C26.5311 11.348 27.5858 11.124 28.6871 11.124C29.8631 11.124 30.7778 11.348 31.4311 11.796C32.0844 12.2253 32.5418 12.888 32.8031 13.784C33.0644 14.68 33.1951 15.8747 33.1951 17.368V25.068L34.9871 25.32V27H27.6231V25.32L29.2471 25.068V17.368C29.2471 16.3973 29.1818 15.6413 29.0511 15.1C28.9204 14.5587 28.6778 14.1573 28.3231 13.896C27.9871 13.6347 27.4831 13.504 26.8111 13.504C26.2324 13.504 25.6351 13.644 25.0191 13.924C24.4218 14.1853 23.8898 14.5027 23.4231 14.876V25.068L25.1311 25.32V27H17.8791V25.32L19.4471 25.096V6.532ZM36.8889 19.244C36.8889 17.4893 37.2342 15.996 37.9249 14.764C38.6342 13.532 39.5769 12.608 40.7529 11.992C41.9289 11.3573 43.2076 11.04 44.5889 11.04C46.9409 11.04 48.7516 11.768 50.0209 13.224C51.3089 14.6613 51.9529 16.6213 51.9529 19.104C51.9529 20.8773 51.5982 22.3893 50.8889 23.64C50.1982 24.872 49.2649 25.796 48.0889 26.412C46.9316 27.0093 45.6529 27.308 44.2529 27.308C41.9196 27.308 40.1089 26.5893 38.8209 25.152C37.5329 23.696 36.8889 21.7267 36.8889 19.244ZM44.4769 25.488C46.5862 25.488 47.6409 23.4533 47.6409 19.384C47.6409 17.256 47.3889 15.6413 46.8849 14.54C46.3809 13.42 45.5596 12.86 44.4209 12.86C42.2556 12.86 41.1729 14.8947 41.1729 18.964C41.1729 21.092 41.4342 22.716 41.9569 23.836C42.4982 24.9373 43.3382 25.488 44.4769 25.488ZM61.5543 27.308C59.0903 27.308 57.2516 26.5893 56.0383 25.152C54.8436 23.696 54.2463 21.7173 54.2463 19.216C54.2463 17.536 54.5543 16.08 55.1703 14.848C55.8049 13.616 56.6916 12.6733 57.8303 12.02C58.9689 11.3667 60.2849 11.04 61.7783 11.04C63.6449 11.04 65.0823 11.5347 66.0903 12.524C67.0983 13.4947 67.6209 14.8853 67.6583 16.696C67.6583 17.928 67.5836 18.8427 67.4343 19.44H58.3343C58.4089 21.1387 58.8103 22.464 59.5383 23.416C60.2663 24.3493 61.3023 24.816 62.6463 24.816C63.3743 24.816 64.1209 24.6947 64.8863 24.452C65.6703 24.2093 66.2863 23.92 66.7343 23.584L67.4343 25.124C66.9303 25.6653 66.1089 26.1693 64.9703 26.636C63.8503 27.084 62.7116 27.308 61.5543 27.308ZM63.7383 17.76C63.7756 17.2373 63.7943 16.836 63.7943 16.556C63.7943 14.0733 62.9636 12.832 61.3023 12.832C60.3876 12.832 59.6783 13.196 59.1743 13.924C58.6703 14.652 58.3903 15.9307 58.3343 17.76H63.7383ZM71.9648 8.296L69.8088 7.932V6.196H78.7688V7.932L76.0808 8.296V25.012L82.0728 24.76L83.8368 19.524L86.1048 19.832L85.2368 27H69.7528V25.32L71.9648 25.04V8.296ZM87.4403 22.632C87.4403 20.9333 88.2896 19.6547 89.9883 18.796C91.7056 17.9373 93.9176 17.4987 96.6243 17.48V16.836C96.6243 16.0707 96.5403 15.4733 96.3723 15.044C96.2229 14.6147 95.9336 14.2973 95.5043 14.092C95.0936 13.868 94.4869 13.756 93.6843 13.756C92.7696 13.756 91.9483 13.8773 91.2203 14.12C90.4923 14.344 89.7363 14.6427 88.9523 15.016L88.0843 13.224C88.3643 12.9813 88.8309 12.692 89.4843 12.356C90.1563 12.02 90.9496 11.7307 91.8643 11.488C92.7789 11.2267 93.7216 11.096 94.6923 11.096C96.1296 11.096 97.2496 11.2827 98.0523 11.656C98.8736 12.0293 99.4616 12.6267 99.8163 13.448C100.171 14.2693 100.348 15.3707 100.348 16.752V25.32H101.86V26.888C101.487 26.9813 100.955 27.0747 100.264 27.168C99.5736 27.2613 98.9669 27.308 98.4443 27.308C97.8096 27.308 97.3803 27.2147 97.1563 27.028C96.9509 26.8413 96.8483 26.4587 96.8483 25.88V25.124C96.3443 25.684 95.6909 26.188 94.8883 26.636C94.0856 27.084 93.1803 27.308 92.1723 27.308C91.3136 27.308 90.5203 27.1307 89.7923 26.776C89.0829 26.4027 88.5136 25.8707 88.0843 25.18C87.6549 24.4707 87.4403 23.6213 87.4403 22.632ZM93.9643 24.984C94.3563 24.984 94.8043 24.872 95.3083 24.648C95.8123 24.4053 96.2509 24.116 96.6243 23.78V19.188C94.9443 19.188 93.6843 19.4773 92.8443 20.056C92.0229 20.616 91.6123 21.344 91.6123 22.24C91.6123 23.136 91.8176 23.8173 92.2283 24.284C92.6576 24.7507 93.2363 24.984 93.9643 24.984ZM106.716 24.704C106.865 24.928 107.201 25.1427 107.724 25.348C108.265 25.5347 108.806 25.628 109.348 25.628C110.225 25.628 110.878 25.4507 111.308 25.096C111.756 24.7227 111.98 24.2373 111.98 23.64C111.98 23.024 111.709 22.5293 111.168 22.156C110.626 21.764 109.712 21.288 108.424 20.728L107.64 20.392C106.352 19.8507 105.39 19.1973 104.756 18.432C104.121 17.6667 103.804 16.6773 103.804 15.464C103.804 14.624 104.056 13.8773 104.56 13.224C105.064 12.552 105.773 12.0293 106.688 11.656C107.602 11.2827 108.657 11.096 109.852 11.096C110.729 11.096 111.476 11.152 112.092 11.264C112.726 11.376 113.389 11.5253 114.08 11.712C114.453 11.8427 114.733 11.9173 114.92 11.936V15.604H112.708L112.064 13.476C111.952 13.2893 111.7 13.1213 111.308 12.972C110.916 12.8227 110.468 12.748 109.964 12.748C109.198 12.748 108.582 12.916 108.116 13.252C107.668 13.5693 107.444 14.0173 107.444 14.596C107.444 15.1187 107.602 15.5573 107.92 15.912C108.237 16.248 108.582 16.5093 108.956 16.696C109.329 16.8827 110.02 17.1907 111.028 17.62C112.036 18.0493 112.866 18.46 113.52 18.852C114.192 19.244 114.742 19.7573 115.172 20.392C115.62 21.008 115.844 21.764 115.844 22.66C115.844 24.0413 115.302 25.1613 114.22 26.02C113.137 26.8787 111.578 27.308 109.544 27.308C108.592 27.308 107.733 27.224 106.968 27.056C106.221 26.888 105.353 26.664 104.364 26.384L103.748 26.188V22.492H106.072L106.716 24.704ZM121.459 8.884C120.787 8.884 120.255 8.688 119.863 8.296C119.471 7.904 119.275 7.4 119.275 6.784C119.275 6.07467 119.499 5.48667 119.947 5.02C120.395 4.55333 120.993 4.32 121.739 4.32C122.486 4.32 123.055 4.52533 123.447 4.936C123.839 5.328 124.035 5.82267 124.035 6.42C124.035 7.16667 123.811 7.764 123.363 8.212C122.915 8.66 122.29 8.884 121.487 8.884H121.459ZM119.975 14.092L117.987 13.56V11.684L123.111 11.068H123.167L123.951 11.628V25.096L125.827 25.32V27H118.015V25.32L119.975 25.068V14.092ZM133.686 27.308C132.529 27.308 131.493 27.0373 130.578 26.496C129.664 25.936 128.936 25.0773 128.394 23.92C127.853 22.7627 127.582 21.316 127.582 19.58C127.582 18.012 127.9 16.584 128.534 15.296C129.188 13.9893 130.14 12.9533 131.39 12.188C132.641 11.4227 134.144 11.04 135.898 11.04C136.608 11.04 137.28 11.1147 137.914 11.264V6.532L135.17 6.14V4.6L140.938 4.04H141.022L141.806 4.628V25.292H143.318V26.888C141.974 27.168 140.864 27.308 139.986 27.308C139.389 27.308 138.96 27.2053 138.698 27C138.456 26.8133 138.334 26.4307 138.334 25.852V25.068C137.849 25.7213 137.186 26.2627 136.346 26.692C135.506 27.1027 134.62 27.308 133.686 27.308ZM135.142 24.984C135.758 24.984 136.3 24.8627 136.766 24.62C137.252 24.3587 137.634 24.0507 137.914 23.696V13.504C137.784 13.3173 137.504 13.1587 137.074 13.028C136.664 12.8973 136.216 12.832 135.73 12.832C134.536 12.832 133.574 13.3547 132.846 14.4C132.137 15.4267 131.782 17.0787 131.782 19.356C131.782 21.26 132.09 22.6787 132.706 23.612C133.322 24.5267 134.134 24.984 135.142 24.984ZM145.362 19.244C145.362 17.4893 145.707 15.996 146.398 14.764C147.107 13.532 148.05 12.608 149.226 11.992C150.402 11.3573 151.68 11.04 153.062 11.04C155.414 11.04 157.224 11.768 158.494 13.224C159.782 14.6613 160.426 16.6213 160.426 19.104C160.426 20.8773 160.071 22.3893 159.362 23.64C158.671 24.872 157.738 25.796 156.562 26.412C155.404 27.0093 154.126 27.308 152.726 27.308C150.392 27.308 148.582 26.5893 147.294 25.152C146.006 23.696 145.362 21.7267 145.362 19.244ZM152.95 25.488C155.059 25.488 156.114 23.4533 156.114 19.384C156.114 17.256 155.862 15.6413 155.358 14.54C154.854 13.42 154.032 12.86 152.894 12.86C150.728 12.86 149.646 14.8947 149.646 18.964C149.646 21.092 149.907 22.716 150.43 23.836C150.971 24.9373 151.811 25.488 152.95 25.488Z" fill="black"/>
</svg>
